<?xml version="1.0" encoding="utf-8"?>
<!-- Generator: Adobe Illustrator 16.0.0, SVG Export Plug-In . SVG Version: 6.00 Build 0)  -->
<!DOCTYPE svg PUBLIC "-//W3C//DTD SVG 1.1//EN" "http://www.w3.org/Graphics/SVG/1.1/DTD/svg11.dtd">
<svg version="1.1" id="图层_1" xmlns="http://www.w3.org/2000/svg" xmlns:xlink="http://www.w3.org/1999/xlink" x="0px" y="0px"
	 width="256px" height="256px" viewBox="0 0 256 256" enable-background="new 0 0 256 256" xml:space="preserve">
<g>
	<path fill="#39B54A" d="M98.972,46.002l-0.001,163.996h-50l0.001-163.996H98.972 M113.972,31.002h-80l-0.001,193.996h80
		L113.972,31.002L113.972,31.002z"/>
</g>
<g>
	<path fill="#39B54A" d="M207.028,46.002l-0.001,163.996h-50l0.001-163.996H207.028 M222.028,31.002h-80l-0.001,193.996h80
		L222.028,31.002L222.028,31.002z"/>
</g>
<g>
	<g>
		<line fill="none" stroke="#39B54A" stroke-width="8" stroke-miterlimit="10" x1="128.001" y1="31.002" x2="128.001" y2="38.502"/>
		
			<line fill="none" stroke="#39B54A" stroke-width="8" stroke-miterlimit="10" stroke-dasharray="14.5132,4.8377" x1="128.001" y1="43.34" x2="128.001" y2="215.079"/>
		
			<line fill="none" stroke="#39B54A" stroke-width="8" stroke-miterlimit="10" x1="128.001" y1="217.498" x2="128.001" y2="224.998"/>
	</g>
</g>
<g>
	<path d="M10.439,84.102l27.686-37.305L13.711,12.52H24.99l12.988,18.359c2.702,3.809,4.622,6.738,5.762,8.789
		c1.595-2.604,3.483-5.322,5.664-8.154L63.809,12.52h10.303L48.965,46.26l27.1,37.842H64.346L46.328,58.564
		c-1.009-1.465-2.051-3.06-3.125-4.785c-1.595,2.604-2.734,4.395-3.418,5.371L21.816,84.102H10.439z"/>
</g>
</svg>
