<?xml version="1.0" encoding="utf-8"?>
<!-- Generator: Adobe Illustrator 16.0.0, SVG Export Plug-In . SVG Version: 6.00 Build 0)  -->
<!DOCTYPE svg PUBLIC "-//W3C//DTD SVG 1.1//EN" "http://www.w3.org/Graphics/SVG/1.1/DTD/svg11.dtd">
<svg version="1.1" id="图层_1" xmlns="http://www.w3.org/2000/svg" xmlns:xlink="http://www.w3.org/1999/xlink" x="0px" y="0px"
	 width="256px" height="256px" viewBox="0 0 256 256" enable-background="new 0 0 256 256" xml:space="preserve">
<g>
	<path fill="#39B54A" d="M98.972,46.004V210h-50V46.004H98.972 M113.972,31.004h-80V225h80V31.004L113.972,31.004z"/>
</g>
<g>
	<path fill="#39B54A" d="M207.028,46.004V210h-50V46.004H207.028 M222.028,31.004h-80V225h80V31.004L222.028,31.004z"/>
</g>
<g>
	<g>
		<line fill="none" stroke="#39B54A" stroke-width="8" stroke-miterlimit="10" x1="128.001" y1="31.004" x2="128.001" y2="38.504"/>
		
			<line fill="none" stroke="#39B54A" stroke-width="8" stroke-miterlimit="10" stroke-dasharray="14.5132,4.8377" x1="128.001" y1="43.342" x2="128.001" y2="215.081"/>
		<line fill="none" stroke="#39B54A" stroke-width="8" stroke-miterlimit="10" x1="128.001" y1="217.5" x2="128.001" y2="225"/>
	</g>
</g>
<g>
	<path d="M37.881,84.102V53.779L10.293,12.52h11.523l14.111,21.582c2.604,4.037,5.029,8.073,7.275,12.109
		c2.148-3.743,4.753-7.959,7.813-12.646L64.883,12.52h11.035l-28.564,41.26v30.322H37.881z"/>
</g>
</svg>
