<?xml version="1.0" encoding="utf-8"?>
<!-- Generator: Adobe Illustrator 16.0.0, SVG Export Plug-In . SVG Version: 6.00 Build 0)  -->
<!DOCTYPE svg PUBLIC "-//W3C//DTD SVG 1.1//EN" "http://www.w3.org/Graphics/SVG/1.1/DTD/svg11.dtd">
<svg version="1.1" id="图层_1" xmlns="http://www.w3.org/2000/svg" xmlns:xlink="http://www.w3.org/1999/xlink" x="0px" y="0px"
	 width="256px" height="256px" viewBox="0 0 256 256" enable-background="new 0 0 256 256" xml:space="preserve">
<g>
	<path fill="#39B54A" d="M209.998,157.028v50H46.001v-50H209.998 M224.998,142.028H31.001v80h193.997V142.028L224.998,142.028z"/>
</g>
<g>
	<path fill="#39B54A" d="M209.998,48.972v50H46.001v-50H209.998 M224.998,33.972H31.001v80h193.997V33.972L224.998,33.972z"/>
</g>
<g>
	<g>
		<line fill="none" stroke="#39B54A" stroke-width="8" stroke-miterlimit="10" x1="31.001" y1="127.998" x2="38.501" y2="127.998"/>
		
			<line fill="none" stroke="#39B54A" stroke-width="8" stroke-miterlimit="10" stroke-dasharray="14.5133,4.8378" x1="43.339" y1="127.998" x2="215.079" y2="127.998"/>
		
			<line fill="none" stroke="#39B54A" stroke-width="8" stroke-miterlimit="10" x1="217.498" y1="127.998" x2="224.998" y2="127.998"/>
	</g>
</g>
<g>
	<path d="M12.002,84.102v-8.789l36.67-45.85c2.604-3.255,5.078-6.087,7.422-8.496H16.152V12.52h51.27v8.447L27.236,70.625
		l-4.346,5.029h45.703v8.447H12.002z"/>
</g>
</svg>
