<?xml version="1.0" encoding="utf-8"?>
<!-- Generator: Adobe Illustrator 16.0.0, SVG Export Plug-In . SVG Version: 6.00 Build 0)  -->
<!DOCTYPE svg PUBLIC "-//W3C//DTD SVG 1.1//EN" "http://www.w3.org/Graphics/SVG/1.1/DTD/svg11.dtd">
<svg version="1.1" id="图层_1" xmlns="http://www.w3.org/2000/svg" xmlns:xlink="http://www.w3.org/1999/xlink" x="0px" y="0px"
	 width="256px" height="256px" viewBox="0 0 256 256" enable-background="new 0 0 256 256" xml:space="preserve">
<g>
	<path fill="#39B54A" d="M128,54.956l43.526,42.579h-4.419h-15v15v15.498h-48.214v-15.498v-15h-15h-4.419L128,54.956 M128,33.973
		L47.69,112.535h41.203v30.498h78.214v-30.498h41.203L128,33.973L128,33.973z"/>
</g>
<g>
	<path fill="#39B54A" d="M215.786,157.029l-12.5,50H40.213l12.5-50H215.786 M234.998,142.029H41.001l-20,80h193.997L234.998,142.029
		L234.998,142.029z"/>
</g>
<g>
	<path d="M65.826,170.742h9.473V212.1c0,7.194-0.813,12.907-2.441,17.139c-1.627,4.232-4.564,7.675-8.813,10.327
		c-4.248,2.653-9.823,3.979-16.725,3.979c-6.705,0-12.19-1.156-16.455-3.467c-4.264-2.311-7.308-5.655-9.131-10.034
		C19.912,225.666,19,219.685,19,212.1v-41.357h9.473v41.309c0,6.218,0.578,10.8,1.734,13.745c1.154,2.946,3.141,5.217,5.957,6.812
		C38.979,234.203,42.422,235,46.49,235c6.967,0,11.931-1.578,14.893-4.736c2.963-3.157,4.443-9.229,4.443-18.213V170.742z"/>
</g>
</svg>
