<?xml version="1.0" encoding="utf-8"?>
<!-- Generator: Adobe Illustrator 16.0.0, SVG Export Plug-In . SVG Version: 6.00 Build 0)  -->
<!DOCTYPE svg PUBLIC "-//W3C//DTD SVG 1.1//EN" "http://www.w3.org/Graphics/SVG/1.1/DTD/svg11.dtd">
<svg version="1.1" id="图层_1" xmlns="http://www.w3.org/2000/svg" xmlns:xlink="http://www.w3.org/1999/xlink" x="0px" y="0px"
	 width="256px" height="256px" viewBox="0 0 256 256" enable-background="new 0 0 256 256" xml:space="preserve">
<g>
	<path fill="#39B54A" d="M152.107,48.971v15.498v15h15h4.419L128,122.048L84.474,79.469h4.419h15v-15V48.971H152.107
		 M167.107,33.971H88.893v30.498H47.689L128,143.031l80.311-78.563h-41.203V33.971L167.107,33.971z"/>
</g>
<g>
	<path fill="#39B54A" d="M215.786,157.029l-12.5,50H40.214l12.5-50H215.786 M234.998,142.029H41.002l-20,80h193.996L234.998,142.029
		L234.998,142.029z"/>
</g>
<g>
	<path d="M66.062,170.742h9.473V212.1c0,7.194-0.813,12.907-2.441,17.139c-1.628,4.232-4.565,7.675-8.813,10.327
		c-4.248,2.653-9.822,3.979-16.724,3.979c-6.706,0-12.19-1.156-16.455-3.467s-7.308-5.655-9.131-10.034
		c-1.823-4.378-2.734-10.359-2.734-17.944v-41.357h9.473v41.309c0,6.218,0.577,10.8,1.733,13.745
		c1.155,2.946,3.141,5.217,5.957,6.812c2.815,1.596,6.258,2.393,10.327,2.393c6.966,0,11.931-1.578,14.893-4.736
		c2.962-3.157,4.443-9.229,4.443-18.213V170.742z"/>
</g>
</svg>
