<?xml version="1.0" encoding="utf-8"?>
<!-- Generator: Adobe Illustrator 16.0.0, SVG Export Plug-In . SVG Version: 6.00 Build 0)  -->
<!DOCTYPE svg PUBLIC "-//W3C//DTD SVG 1.1//EN" "http://www.w3.org/Graphics/SVG/1.1/DTD/svg11.dtd">
<svg version="1.1" id="图层_1" xmlns="http://www.w3.org/2000/svg" xmlns:xlink="http://www.w3.org/1999/xlink" x="0px" y="0px"
	 width="256px" height="256px" viewBox="0 0 256 256" enable-background="new 0 0 256 256" xml:space="preserve">
<g>
	<path fill="#39B54A" d="M152.106,127.965v15.498v15h15h4.419l-43.526,42.579l-43.526-42.579h4.419h15v-15v-15.498H152.106
		 M167.106,112.965H88.892v30.498H47.689l80.31,78.563l80.311-78.563h-41.203V112.965L167.106,112.965z"/>
</g>
<g>
	<path fill="#39B54A" d="M215.786,48.969l-12.5,50H40.213l12.5-50H215.786 M234.998,33.969H41.001l-20,80h193.997L234.998,33.969
		L234.998,33.969z"/>
</g>
<g>
	<path d="M19.1,246.056v-71.582h24.658c5.566,0,9.815,0.342,12.745,1.025c4.102,0.944,7.6,2.653,10.498,5.127
		c3.775,3.19,6.6,7.268,8.471,12.231c1.872,4.965,2.809,10.637,2.809,17.017c0,5.437-0.635,10.254-1.904,14.453
		s-2.898,7.675-4.883,10.425c-1.986,2.751-4.159,4.916-6.52,6.494c-2.359,1.579-5.208,2.775-8.545,3.589
		c-3.336,0.814-7.169,1.221-11.499,1.221H19.1z M28.573,237.608h15.283c4.72,0,8.422-0.439,11.108-1.318s4.826-2.115,6.422-3.711
		c2.246-2.246,3.995-5.265,5.248-9.058c1.254-3.792,1.881-8.39,1.881-13.794c0-7.486-1.229-13.24-3.688-17.261
		c-2.457-4.02-5.443-6.714-8.959-8.081c-2.539-0.977-6.625-1.465-12.256-1.465H28.573V237.608z"/>
</g>
</svg>
