<?xml version="1.0" encoding="utf-8"?>
<!-- Generator: Adobe Illustrator 16.0.0, SVG Export Plug-In . SVG Version: 6.00 Build 0)  -->
<!DOCTYPE svg PUBLIC "-//W3C//DTD SVG 1.1//EN" "http://www.w3.org/Graphics/SVG/1.1/DTD/svg11.dtd">
<svg version="1.1" id="图层_1" xmlns="http://www.w3.org/2000/svg" xmlns:xlink="http://www.w3.org/1999/xlink" x="0px" y="0px"
	 width="256px" height="256px" viewBox="0 0 256 256" enable-background="new 0 0 256 256" xml:space="preserve">
<g>
	<path fill="#39B54A" d="M127.999,133.949l43.525,42.578h-4.419h-15v15v15.498l-48.214,0.001v-15.498v-15h-15h-4.419
		L127.999,133.949 M127.999,112.966l-80.311,78.563h41.203v30.498l78.214-0.001v-30.498h41.203L127.999,112.966L127.999,112.966z"/>
</g>
<g>
	<path fill="#39B54A" d="M215.786,48.969l-12.5,50H40.214l12.5-50H215.786 M234.998,33.969H41.002l-20,80h193.996L234.998,33.969
		L234.998,33.969z"/>
</g>
<g>
	<path d="M18.237,246.056v-71.582h24.658c5.566,0,9.814,0.342,12.744,1.025c4.102,0.944,7.601,2.653,10.498,5.127
		c3.776,3.19,6.6,7.268,8.472,12.231c1.871,4.965,2.808,10.637,2.808,17.017c0,5.437-0.635,10.254-1.904,14.453
		s-2.897,7.675-4.883,10.425c-1.985,2.751-4.159,4.916-6.519,6.494c-2.36,1.579-5.209,2.775-8.545,3.589
		c-3.337,0.814-7.17,1.221-11.499,1.221H18.237z M27.71,237.608h15.283c4.72,0,8.423-0.439,11.108-1.318s4.826-2.115,6.421-3.711
		c2.246-2.246,3.995-5.265,5.249-9.058c1.253-3.792,1.88-8.39,1.88-13.794c0-7.486-1.229-13.24-3.687-17.261
		c-2.458-4.02-5.444-6.714-8.96-8.081c-2.539-0.977-6.624-1.465-12.256-1.465H27.71V237.608z"/>
</g>
</svg>
