<?xml version="1.0" encoding="utf-8"?>
<!-- Generator: Adobe Illustrator 16.0.0, SVG Export Plug-In . SVG Version: 6.00 Build 0)  -->
<!DOCTYPE svg PUBLIC "-//W3C//DTD SVG 1.1//EN" "http://www.w3.org/Graphics/SVG/1.1/DTD/svg11.dtd">
<svg version="1.1" id="图层_1" xmlns="http://www.w3.org/2000/svg" xmlns:xlink="http://www.w3.org/1999/xlink" x="0px" y="0px"
	 width="256px" height="256px" viewBox="0 0 256 256" enable-background="new 0 0 256 256" xml:space="preserve">
<g>
	<path d="M19,238.693v-71.582h26.855c5.469,0,9.855,0.725,13.159,2.173c3.304,1.449,5.892,3.679,7.764,6.689
		c1.872,3.012,2.808,6.161,2.808,9.448c0,3.061-0.83,5.941-2.49,8.643c-1.66,2.702-4.167,4.883-7.52,6.543
		c4.329,1.27,7.658,3.435,9.985,6.494c2.327,3.061,3.491,6.674,3.491,10.84c0,3.354-0.708,6.47-2.124,9.351
		s-3.166,5.103-5.249,6.665c-2.083,1.563-4.696,2.743-7.837,3.54c-3.142,0.798-6.991,1.196-11.548,1.196H19z M28.473,197.189h15.479
		c4.199,0,7.21-0.276,9.033-0.83c2.409-0.716,4.224-1.904,5.444-3.564s1.831-3.743,1.831-6.25c0-2.376-0.57-4.468-1.709-6.274
		c-1.14-1.807-2.767-3.043-4.883-3.711c-2.116-0.667-5.746-1.001-10.889-1.001H28.473V197.189z M28.473,230.246h17.822
		c3.06,0,5.208-0.113,6.445-0.342c2.181-0.391,4.004-1.041,5.469-1.953c1.465-0.911,2.669-2.237,3.613-3.979
		c0.944-1.741,1.416-3.751,1.416-6.03c0-2.669-0.684-4.988-2.051-6.958c-1.367-1.969-3.264-3.353-5.688-4.15
		c-2.425-0.797-5.917-1.196-10.474-1.196H28.473V230.246z"/>
</g>
<g>
	<polygon fill="#39B54A" points="127.999,222.026 208.31,143.464 167.106,143.464 167.106,112.966 88.892,112.966 88.892,143.464 
		47.689,143.464 	"/>
</g>
<g>
	<path fill="#39B54A" d="M209.998,48.97v50H46.001v-50H209.998 M224.998,33.97H31.001v80h193.997V33.97L224.998,33.97z"/>
</g>
</svg>
