<?xml version="1.0" encoding="utf-8"?>
<!-- Generator: Adobe Illustrator 16.0.0, SVG Export Plug-In . SVG Version: 6.00 Build 0)  -->
<!DOCTYPE svg PUBLIC "-//W3C//DTD SVG 1.1//EN" "http://www.w3.org/Graphics/SVG/1.1/DTD/svg11.dtd">
<svg version="1.1" id="图层_1" xmlns="http://www.w3.org/2000/svg" xmlns:xlink="http://www.w3.org/1999/xlink" x="0px" y="0px"
	 width="256px" height="256px" viewBox="0 0 256 256" enable-background="new 0 0 256 256" xml:space="preserve">
<path fill="#39B54A" d="M215.999,129.33h20c0-11.65-1.85-22.87-5.27-33.379l-19.021,6.18c-2.88-8.88-7.13-17.13-12.51-24.521
	l16.18-11.76c-6.67-9.16-14.739-17.24-23.899-23.89l-11.75,16.18c-7.391-5.39-15.65-9.64-24.53-12.52l6.18-19.03
	c-10.51-3.42-21.729-5.26-33.38-5.26v20c-9.489,0-18.64,1.5-27.2,4.29l-6.18-19.03c-10.899,3.53-21.03,8.75-30.1,15.36l11.76,16.18
	c-7.47,5.43-14.05,12.01-19.48,19.48l-16.18-11.76c-6.6,9.07-11.82,19.2-15.35,30.101l19.02,6.18c-2.79,8.56-4.29,17.709-4.29,27.2
	h-20c0,11.65,1.84,22.871,5.271,33.381l19.02-6.18c2.88,8.879,7.13,17.139,12.521,24.529l-16.181,11.75
	c6.65,9.16,14.73,17.24,23.891,23.891l11.75-16.182c7.39,5.391,15.649,9.641,24.529,12.521l-6.18,19.029
	c10.51,3.42,21.73,5.26,33.38,5.26v-20c9.49,0,18.641-1.5,27.2-4.289l6.18,19.029c10.9-3.529,21.03-8.75,30.101-15.369
	l-11.75-16.182c7.46-5.42,14.04-12,19.46-19.459l16.18,11.75c6.62-9.07,11.84-19.199,15.36-30.1l-19.021-6.18
	C214.499,147.971,215.999,138.82,215.999,129.33z M171.697,161.066c-3.342,4.59-7.372,8.617-11.962,11.963
	c-4.527,3.303-9.596,5.898-15.058,7.662c-5.256,1.725-10.863,2.639-16.679,2.639s-11.423-0.914-16.677-2.639
	c-5.464-1.764-10.53-4.359-15.057-7.662c-4.59-3.346-8.621-7.373-11.965-11.963c-3.303-4.529-5.898-9.596-7.663-15.037
	c-1.724-5.256-2.639-10.863-2.639-16.699c0-5.816,0.915-11.422,2.639-16.678c1.765-5.462,4.36-10.529,7.663-15.058
	c3.344-4.59,7.375-8.619,11.965-11.963c4.526-3.302,9.593-5.898,15.057-7.664c5.254-1.724,10.861-2.638,16.677-2.638
	s11.423,0.914,16.679,2.638c5.462,1.766,10.53,4.362,15.058,7.664c4.59,3.344,8.62,7.373,11.962,11.963
	c3.303,4.528,5.898,9.596,7.665,15.058c1.724,5.256,2.637,10.862,2.637,16.678c0,5.836-0.913,11.443-2.637,16.699
	C177.596,151.471,175,156.537,171.697,161.066z"/>
</svg>
