<?xml version="1.0" encoding="utf-8"?>
<!-- Generator: Adobe Illustrator 16.0.0, SVG Export Plug-In . SVG Version: 6.00 Build 0)  -->
<!DOCTYPE svg PUBLIC "-//W3C//DTD SVG 1.1//EN" "http://www.w3.org/Graphics/SVG/1.1/DTD/svg11.dtd">
<svg version="1.1" id="图层_1" xmlns="http://www.w3.org/2000/svg" xmlns:xlink="http://www.w3.org/1999/xlink" x="0px" y="0px"
	 width="56.693px" height="56.693px" viewBox="0 0 56.693 56.693" enable-background="new 0 0 56.693 56.693" xml:space="preserve">
<g opacity="0.6">
	<rect x="10.263" y="43.681" opacity="0.8" fill="#E60012" width="4.668" height="4.667"/>
	<rect x="19.599" y="43.681" opacity="0.8" fill="#E60012" width="26.832" height="4.667"/>
	<rect x="19.599" y="26.013" opacity="0.8" fill="#E60012" width="26.832" height="4.668"/>
	<rect x="10.263" y="26.013" opacity="0.8" fill="#E60012" width="4.668" height="4.668"/>
	<rect x="19.599" y="17.179" opacity="0.8" fill="#E60012" width="26.832" height="4.667"/>
	<rect x="10.263" y="17.179" opacity="0.8" fill="#E60012" width="4.668" height="4.667"/>
	<rect x="10.265" y="8.346" opacity="0.8" fill="#E60012" width="36.166" height="4.668"/>
	<rect x="10.263" y="43.681" opacity="0.8" fill="#E60012" width="4.668" height="4.667"/>
	<rect x="10.263" y="26.013" opacity="0.8" fill="#E60012" width="4.668" height="4.668"/>
	<rect x="10.263" y="17.179" opacity="0.8" fill="#E60012" width="4.668" height="4.667"/>
	<rect x="10.265" y="8.346" opacity="0.8" fill="#E60012" width="36.166" height="4.668"/>
	<rect x="10.265" y="34.847" opacity="0.8" fill="#E60012" width="36.166" height="4.668"/>
	<rect x="10.265" y="34.847" opacity="0.8" fill="#E60012" width="36.166" height="4.668"/>
	
		<rect x="10.263" y="43.681" fill="none" stroke="#000000" stroke-width="0.5" stroke-miterlimit="10" width="4.668" height="4.667"/>
	
		<rect x="19.599" y="43.681" fill="none" stroke="#000000" stroke-width="0.5" stroke-miterlimit="10" width="26.832" height="4.667"/>
	
		<rect x="19.599" y="26.013" fill="none" stroke="#000000" stroke-width="0.5" stroke-miterlimit="10" width="26.832" height="4.668"/>
	
		<rect x="10.263" y="26.013" fill="none" stroke="#000000" stroke-width="0.5" stroke-miterlimit="10" width="4.668" height="4.668"/>
	
		<rect x="19.599" y="17.179" fill="none" stroke="#000000" stroke-width="0.5" stroke-miterlimit="10" width="26.832" height="4.667"/>
	
		<rect x="10.263" y="17.179" fill="none" stroke="#000000" stroke-width="0.5" stroke-miterlimit="10" width="4.668" height="4.667"/>
	
		<rect x="10.265" y="8.346" fill="none" stroke="#000000" stroke-width="0.5" stroke-miterlimit="10" width="36.166" height="4.668"/>
	
		<rect x="10.265" y="34.847" fill="none" stroke="#000000" stroke-width="0.5" stroke-miterlimit="10" width="36.166" height="4.668"/>
</g>
</svg>
