<?xml version="1.0" encoding="utf-8"?>
<!-- Generator: Adobe Illustrator 16.0.0, SVG Export Plug-In . SVG Version: 6.00 Build 0)  -->
<!DOCTYPE svg PUBLIC "-//W3C//DTD SVG 1.1//EN" "http://www.w3.org/Graphics/SVG/1.1/DTD/svg11.dtd">
<svg version="1.1" id="图层_1" xmlns="http://www.w3.org/2000/svg" xmlns:xlink="http://www.w3.org/1999/xlink" x="0px" y="0px"
	 width="77.669px" height="77.669px" viewBox="0 0 77.669 77.669" enable-background="new 0 0 77.669 77.669" xml:space="preserve">
<g opacity="0.7">
	<linearGradient id="SVGID_1_" gradientUnits="userSpaceOnUse" x1="32.4536" y1="52.5259" x2="45.2153" y2="52.5259">
		<stop  offset="0" style="stop-color:#E60012"/>
		<stop  offset="0.6559" style="stop-color:#C30D23;stop-opacity:0.3"/>
		<stop  offset="0.752" style="stop-color:#CE0A1F;stop-opacity:0.4397"/>
		<stop  offset="1" style="stop-color:#E60012;stop-opacity:0.8"/>
	</linearGradient>
	<polygon fill="url(#SVGID_1_)" points="32.454,37.292 32.454,60.208 45.215,67.758 45.215,37.292 	"/>
	<g>
		<defs>
			<polygon id="SVGID_2_" points="8.759,9.912 32.453,37.292 45.214,37.292 68.91,9.912 			"/>
		</defs>
		<clipPath id="SVGID_3_">
			<use xlink:href="#SVGID_2_"  overflow="visible"/>
		</clipPath>
		
			<linearGradient id="SVGID_4_" gradientUnits="userSpaceOnUse" x1="-3.8906" y1="53.1821" x2="83.0669" y2="53.1821" gradientTransform="matrix(0.8982 0.4396 -0.4396 0.8982 24.8006 -49.6023)">
			<stop  offset="0" style="stop-color:#E60012"/>
			<stop  offset="0.6559" style="stop-color:#C30D23;stop-opacity:0.3"/>
			<stop  offset="0.752" style="stop-color:#CE0A1F;stop-opacity:0.4397"/>
			<stop  offset="1" style="stop-color:#E60012;stop-opacity:0.8"/>
		</linearGradient>
		<polygon clip-path="url(#SVGID_3_)" fill="url(#SVGID_4_)" stroke="#000000" stroke-width="0.75" stroke-miterlimit="10" points="
			11.29,-26.708 -13.801,20.416 58.058,48.494 87.76,10.72 		"/>
	</g>
	<g>
		<defs>
			<polygon id="SVGID_5_" points="8.759,9.912 32.453,37.292 45.214,37.292 68.91,9.912 			"/>
		</defs>
		<clipPath id="SVGID_6_">
			<use xlink:href="#SVGID_5_"  overflow="visible"/>
		</clipPath>
		
			<linearGradient id="SVGID_7_" gradientUnits="userSpaceOnUse" x1="-3.8906" y1="53.1821" x2="83.0669" y2="53.1821" gradientTransform="matrix(0.8982 0.4396 -0.4396 0.8982 24.8006 -49.6023)">
			<stop  offset="0" style="stop-color:#E60012"/>
			<stop  offset="0.6559" style="stop-color:#C30D23;stop-opacity:0.3"/>
			<stop  offset="0.752" style="stop-color:#CE0A1F;stop-opacity:0.4397"/>
			<stop  offset="1" style="stop-color:#E60012;stop-opacity:0.8"/>
		</linearGradient>
		<polygon clip-path="url(#SVGID_6_)" fill="url(#SVGID_7_)" stroke="#000000" stroke-width="0.75" stroke-miterlimit="10" points="
			11.29,-26.708 -13.801,20.416 58.058,48.494 87.76,10.72 		"/>
	</g>
	<polygon fill="none" stroke="#000000" stroke-width="0.5" stroke-linejoin="bevel" stroke-miterlimit="10" points="68.91,9.912 
		8.759,9.912 32.453,37.292 32.454,37.292 32.454,60.208 45.215,67.758 45.215,37.292 45.214,37.292 	"/>
</g>
<rect x="51.668" y="49.168" width="18.833" height="3.833"/>
<rect x="59.168" y="53.001" width="3.832" height="18.833"/>
</svg>
