<?xml version="1.0" encoding="utf-8"?>
<!-- Generator: Adobe Illustrator 16.0.0, SVG Export Plug-In . SVG Version: 6.00 Build 0)  -->
<!DOCTYPE svg PUBLIC "-//W3C//DTD SVG 1.1//EN" "http://www.w3.org/Graphics/SVG/1.1/DTD/svg11.dtd">
<svg version="1.1" id="图层_1" xmlns="http://www.w3.org/2000/svg" xmlns:xlink="http://www.w3.org/1999/xlink" x="0px" y="0px"
	 width="256px" height="256px" viewBox="0 0 256 256" enable-background="new 0 0 256 256" xml:space="preserve">
<g>
	<path d="M35.658,70.563V45.438H10.721v-10.5h24.938V10h10.625v24.938h24.938v10.5H46.283v25.125H35.658z"/>
</g>
<g>
	<path fill="#F15A24" d="M127.998,54.956l43.526,42.58h-4.419h-15v15v94.494h-48.215v-94.494v-15h-15h-4.419L127.998,54.956
		 M127.998,33.973l-80.311,78.563h41.203V222.03h78.215V112.536h41.203L127.998,33.973L127.998,33.973z"/>
</g>
<g>
	<path d="M235.273,168.751h9.473v41.357c0,7.194-0.814,12.907-2.441,17.139c-1.628,4.232-4.565,7.675-8.813,10.327
		c-4.248,2.653-9.823,3.979-16.724,3.979c-6.706,0-12.191-1.156-16.455-3.467c-4.265-2.311-7.309-5.655-9.131-10.034
		c-1.823-4.378-2.734-10.359-2.734-17.944v-41.357h9.473v41.309c0,6.218,0.578,10.8,1.733,13.745
		c1.155,2.946,3.142,5.217,5.957,6.812c2.815,1.596,6.258,2.393,10.327,2.393c6.966,0,11.93-1.578,14.893-4.736
		c2.962-3.157,4.443-9.229,4.443-18.213V168.751z"/>
</g>
</svg>
