<?xml version="1.0" encoding="utf-8"?>
<!-- Generator: Adobe Illustrator 16.0.0, SVG Export Plug-In . SVG Version: 6.00 Build 0)  -->
<!DOCTYPE svg PUBLIC "-//W3C//DTD SVG 1.1//EN" "http://www.w3.org/Graphics/SVG/1.1/DTD/svg11.dtd">
<svg version="1.1" id="图层_1" xmlns="http://www.w3.org/2000/svg" xmlns:xlink="http://www.w3.org/1999/xlink" x="0px" y="0px"
	 width="256px" height="256px" viewBox="0 0 256 256" enable-background="new 0 0 256 256" xml:space="preserve">
<g>
	<path d="M188.789,240.333v-71.582h48.291v8.447h-38.818v22.168h33.594v8.447h-33.594v32.52H188.789z"/>
</g>
<g>
	<polygon fill="#F15A24" points="88.894,124.568 88.894,132.123 137.561,132.123 137.561,134.123 88.894,134.123 88.894,142.176 
		137.561,142.176 137.561,144.176 88.894,144.176 88.894,152.232 137.561,152.232 137.561,154.232 88.894,154.232 88.894,162.285 
		137.561,162.285 137.561,164.285 88.894,164.285 88.894,171.838 158.732,171.838 158.732,174.838 88.894,174.838 88.894,182.393 
		141.02,182.393 141.02,184.393 88.894,184.393 88.894,192.447 141.02,192.447 141.02,194.447 88.894,194.447 88.894,202.5 
		141.02,202.5 141.02,204.5 88.894,204.5 88.894,212.557 141.02,212.557 141.02,214.557 88.894,214.557 88.894,222.029 
		167.108,222.029 167.108,124.568 	"/>
	<polygon fill="#F15A24" points="88.894,121.568 167.108,121.568 167.108,112.535 208.312,112.535 128.001,33.972 47.69,112.535 
		88.894,112.535 	"/>
</g>
</svg>
