<?xml version="1.0" encoding="utf-8"?>
<!-- Generator: Adobe Illustrator 16.0.0, SVG Export Plug-In . SVG Version: 6.00 Build 0)  -->
<!DOCTYPE svg PUBLIC "-//W3C//DTD SVG 1.1//EN" "http://www.w3.org/Graphics/SVG/1.1/DTD/svg11.dtd">
<svg version="1.1" id="图层_1" xmlns="http://www.w3.org/2000/svg" xmlns:xlink="http://www.w3.org/1999/xlink" x="0px" y="0px"
	 width="256px" height="256px" viewBox="0 0 256 256" enable-background="new 0 0 256 256" xml:space="preserve">
<g>
	<path d="M188.447,240.333v-71.582h31.738c6.38,0,11.23,0.644,14.551,1.929c3.32,1.286,5.973,3.557,7.959,6.812
		c1.985,3.256,2.979,6.853,2.979,10.791c0,5.078-1.645,9.359-4.932,12.842c-3.288,3.483-8.366,5.697-15.234,6.641
		c2.506,1.205,4.41,2.393,5.713,3.564c2.767,2.539,5.387,5.713,7.861,9.521l12.451,19.482h-11.914l-9.473-14.893
		c-2.768-4.297-5.046-7.584-6.836-9.863c-1.791-2.278-3.394-3.873-4.81-4.785c-1.416-0.911-2.856-1.546-4.321-1.904
		c-1.074-0.228-2.832-0.342-5.273-0.342H197.92v31.787H188.447z M197.92,200.343h20.361c4.329,0,7.715-0.447,10.156-1.343
		c2.441-0.895,4.297-2.327,5.566-4.297c1.27-1.969,1.904-4.109,1.904-6.421c0-3.385-1.229-6.168-3.687-8.35
		c-2.458-2.181-6.34-3.271-11.646-3.271H197.92V200.343z"/>
</g>
<g>
	<polygon fill="#F15A24" points="33.972,88.893 33.972,167.107 41.526,167.107 41.526,118.44 43.526,118.44 43.526,167.107 
		51.58,167.107 51.58,118.44 53.58,118.44 53.58,167.107 61.636,167.107 61.636,118.44 63.636,118.44 63.636,167.107 
		71.688,167.107 71.688,118.44 73.688,118.44 73.688,167.107 81.241,167.107 81.241,97.269 84.241,97.269 84.241,167.107 
		91.796,167.107 91.796,114.981 93.796,114.981 93.796,167.107 101.852,167.107 101.852,114.981 103.852,114.981 103.852,167.107 
		111.904,167.107 111.904,114.981 113.904,114.981 113.904,167.107 121.96,167.107 121.96,114.981 123.96,114.981 123.96,167.107 
		131.512,167.107 131.512,88.893 	"/>
	<polygon fill="#F15A24" points="222.028,128 143.465,47.689 143.465,88.893 134.512,88.893 134.512,167.107 143.465,167.107 
		143.465,208.311 	"/>
</g>
</svg>
