<?xml version="1.0" encoding="utf-8"?>
<!-- Generator: Adobe Illustrator 16.0.0, SVG Export Plug-In . SVG Version: 6.00 Build 0)  -->
<!DOCTYPE svg PUBLIC "-//W3C//DTD SVG 1.1//EN" "http://www.w3.org/Graphics/SVG/1.1/DTD/svg11.dtd">
<svg version="1.1" id="图层_1" xmlns="http://www.w3.org/2000/svg" xmlns:xlink="http://www.w3.org/1999/xlink" x="0px" y="0px"
	 width="256px" height="256px" viewBox="0 0 256 256" enable-background="new 0 0 256 256" xml:space="preserve">
<g>
	<path d="M35.658,70.563V45.438H10.721v-10.5h24.938V10h10.625v24.938h24.938v10.5H46.283v25.125H35.658z"/>
</g>
<polygon fill="#F15A24" points="128,222.029 208.311,143.466 167.107,143.466 167.107,33.972 88.893,33.972 88.893,143.466 
	47.689,143.466 "/>
<g>
	<path d="M187.91,240.333v-71.582h26.855c5.469,0,9.855,0.725,13.159,2.173c3.304,1.449,5.892,3.679,7.764,6.689
		c1.872,3.012,2.808,6.161,2.808,9.448c0,3.061-0.83,5.941-2.49,8.643c-1.66,2.702-4.167,4.883-7.52,6.543
		c4.329,1.27,7.658,3.435,9.985,6.494c2.327,3.061,3.491,6.674,3.491,10.84c0,3.354-0.708,6.47-2.124,9.351
		s-3.166,5.103-5.249,6.665c-2.084,1.563-4.695,2.743-7.837,3.54c-3.142,0.798-6.991,1.196-11.548,1.196H187.91z M197.383,198.829
		h15.479c4.199,0,7.21-0.276,9.033-0.83c2.408-0.716,4.224-1.904,5.444-3.564s1.831-3.743,1.831-6.25
		c0-2.376-0.57-4.468-1.709-6.274c-1.14-1.807-2.768-3.043-4.883-3.711c-2.116-0.667-5.746-1.001-10.889-1.001h-14.307V198.829z
		 M197.383,231.886h17.822c3.06,0,5.208-0.113,6.445-0.342c2.181-0.391,4.004-1.041,5.469-1.953
		c1.465-0.911,2.669-2.237,3.613-3.979c0.943-1.741,1.416-3.751,1.416-6.03c0-2.669-0.684-4.988-2.051-6.958
		c-1.367-1.969-3.264-3.353-5.688-4.15c-2.425-0.797-5.917-1.196-10.474-1.196h-16.553V231.886z"/>
</g>
</svg>
