<?xml version="1.0" encoding="utf-8"?>
<!-- Generator: Adobe Illustrator 16.0.0, SVG Export Plug-In . SVG Version: 6.00 Build 0)  -->
<!DOCTYPE svg PUBLIC "-//W3C//DTD SVG 1.1//EN" "http://www.w3.org/Graphics/SVG/1.1/DTD/svg11.dtd">
<svg version="1.1" id="图层_1" xmlns="http://www.w3.org/2000/svg" xmlns:xlink="http://www.w3.org/1999/xlink" x="0px" y="0px"
	 width="256px" height="256px" viewBox="0 0 256 256" enable-background="new 0 0 256 256" xml:space="preserve">
<g>
	<path d="M199.91,246.333v-71.582h9.473v63.135h35.254v8.447H199.91z"/>
</g>
<g>
	<polygon fill="#F15A24" points="124.738,167.107 132.293,167.107 132.293,118.44 134.293,118.44 134.293,167.107 142.347,167.107 
		142.347,118.44 144.347,118.44 144.347,167.107 152.402,167.107 152.402,118.44 154.402,118.44 154.402,167.107 162.455,167.107 
		162.455,118.44 164.455,118.44 164.455,167.107 172.008,167.107 172.008,97.269 175.008,97.269 175.008,167.107 182.563,167.107 
		182.563,114.981 184.563,114.981 184.563,167.107 192.618,167.107 192.618,114.981 194.618,114.981 194.618,167.107 
		202.671,167.107 202.671,114.981 204.671,114.981 204.671,167.107 212.727,167.107 212.727,114.981 214.727,114.981 
		214.727,167.107 222.029,167.107 222.029,88.893 124.738,88.893 	"/>
	<polygon fill="#F15A24" points="121.738,88.893 112.535,88.893 112.535,47.689 33.972,128 112.535,208.311 112.535,167.107 
		121.738,167.107 	"/>
</g>
</svg>
